<svg xmlns="http://www.w3.org/2000/svg" viewBox="0 0 240 240" role="img" aria-labelledby="title"><title id="title">Hayvan karakter illüstrasyonu</title><defs><linearGradient id="bg" x1="0" y1="0" x2="1" y2="1"><stop stop-color="#eef4df"/><stop offset="1" stop-color="#fff0d3"/></linearGradient></defs><circle cx="120" cy="120" r="112" fill="url(#bg)"/><path d="M75 88 60 39l45 27M165 88l16-49-46 27" fill="#bd642f" stroke="#8f4928" stroke-width="6" stroke-linejoin="round"/><ellipse cx="120" cy="119" rx="67" ry="63" fill="#cf7236"/><path d="M75 135c14 34 33 50 45 50s33-17 46-50c-16 15-31 20-46 20s-29-5-45-20Z" fill="#f8e9ce"/><ellipse cx="96" cy="112" rx="9" ry="11" fill="#2a211c"/><ellipse cx="145" cy="112" rx="9" ry="11" fill="#2a211c"/><circle cx="93" cy="108" r="3" fill="#fff"/><circle cx="142" cy="108" r="3" fill="#fff"/><path d="M112 132h17l-9 9Z" fill="#473027"/><path d="M119 141c-7 9-15 11-24 6M121 141c7 9 15 11 24 6" fill="none" stroke="#6f3c2a" stroke-width="4" stroke-linecap="round"/><path d="M162 168c23 0 35 13 35 31-18 6-37 4-55-8" fill="#cf7236" stroke="#a1532d" stroke-width="6" stroke-linecap="round"/></svg>